HIERARCHY
ROOT Hips
{
	OFFSET 0.000000 89.005402 0.000000
	CHANNELS 6 Xposition Yposition Zposition Xrotation Yrotation Zrotation
	JOINT Spine
	{
		OFFSET 0.116900 10.681000 0.373400
		CHANNELS 3 Xrotation Yrotation Zrotation
		JOINT Spine1
		{
			OFFSET 0.000000 13.840401 0.053500
			CHANNELS 3 Xrotation Yrotation Zrotation
			JOINT Spine2
			{
				OFFSET 0.000000 14.712700 -0.366200
				CHANNELS 3 Xrotation Yrotation Zrotation
				JOINT Neck
				{
					OFFSET 0.000000 35.415497 -3.314200
					CHANNELS 3 Xrotation Yrotation Zrotation
					JOINT Head
					{
						OFFSET 0.000000 16.899200 1.218300
						CHANNELS 3 Xrotation Yrotation Zrotation
						JOINT HeadTop_End
						{
							OFFSET 0.000000 22.206207 2.192500
							CHANNELS 3 Xrotation Yrotation Zrotation
							End Site
							{
								OFFSET 0.000000 22.314178 0.000000
							}
						}
					}
				}
				JOINT LeftShoulder
				{
					OFFSET 12.896400 26.716293 -4.548400
					CHANNELS 3 Xrotation Yrotation Zrotation
					JOINT LeftArm
					{
						OFFSET 19.027000 -4.857010 -1.718400
						CHANNELS 3 Xrotation Yrotation Zrotation
						JOINT LeftForeArm
						{
							OFFSET 24.179897 0.000000 0.000000
							CHANNELS 3 Xrotation Yrotation Zrotation
							JOINT LeftHand
							{
								OFFSET 27.156403 0.000000 0.000000
								CHANNELS 3 Xrotation Yrotation Zrotation
								JOINT LeftHandIndex1
								{
									OFFSET 16.441200 0.000000 0.000000
									CHANNELS 3 Xrotation Yrotation Zrotation
									JOINT LeftHandIndex2
									{
										OFFSET 4.821899 0.000000 0.000000
										CHANNELS 3 Xrotation Yrotation Zrotation
										JOINT LeftHandIndex3
										{
											OFFSET 6.386497 0.000000 0.000000
											CHANNELS 3 Xrotation Yrotation Zrotation
											JOINT LeftHandIndex4
											{
												OFFSET 5.188988 0.000000 0.000000
												CHANNELS 3 Xrotation Yrotation Zrotation
												End Site
												{
													OFFSET -0.178703 5.185913 0.000177
												}
											}
										}
									}
								}
								JOINT LeftHandThumb1
								{
									OFFSET 6.534897 -5.032593 5.900300
									CHANNELS 3 Xrotation Yrotation Zrotation
									JOINT LeftHandThumb2
									{
										OFFSET 3.818176 -2.204422 2.204423
										CHANNELS 3 Xrotation Yrotation Zrotation
										JOINT LeftHandThumb3
										{
											OFFSET 3.252098 -1.877594 1.877601
											CHANNELS 3 Xrotation Yrotation Zrotation
											JOINT LeftHandThumb4
											{
												OFFSET 5.251778 -3.032120 3.032117
												CHANNELS 3 Xrotation Yrotation Zrotation
												End Site
												{
													OFFSET 0.000023 6.780014 0.000000
												}
											}
										}
									}
								}
							}
						}
					}
				}
				JOINT RightShoulder
				{
					OFFSET -12.896300 26.716293 -4.548400
					CHANNELS 3 Xrotation Yrotation Zrotation
					JOINT RightArm
					{
						OFFSET -19.027000 -4.857010 -1.718400
						CHANNELS 3 Xrotation Yrotation Zrotation
						JOINT RightForeArm
						{
							OFFSET -24.179897 0.000000 0.000000
							CHANNELS 3 Xrotation Yrotation Zrotation
							JOINT RightHand
							{
								OFFSET -27.156403 0.000000 0.000000
								CHANNELS 3 Xrotation Yrotation Zrotation
								JOINT RightHandThumb1
								{
									OFFSET -6.591202 -4.852203 5.988100
									CHANNELS 3 Xrotation Yrotation Zrotation
									JOINT RightHandThumb2
									{
										OFFSET -3.818176 -2.204422 2.204423
										CHANNELS 3 Xrotation Yrotation Zrotation
										JOINT RightHandThumb3
										{
											OFFSET -3.252098 -1.877594 1.877601
											CHANNELS 3 Xrotation Yrotation Zrotation
											JOINT RightHandThumb4
											{
												OFFSET -5.251778 -3.032120 3.032117
												CHANNELS 3 Xrotation Yrotation Zrotation
												End Site
												{
													OFFSET -0.000023 6.780014 0.000000
												}
											}
										}
									}
								}
								JOINT RightHandIndex1
								{
									OFFSET -16.029404 0.000000 0.000000
									CHANNELS 3 Xrotation Yrotation Zrotation
									JOINT RightHandIndex2
									{
										OFFSET -5.213303 0.000000 0.000000
										CHANNELS 3 Xrotation Yrotation Zrotation
										JOINT RightHandIndex3
										{
											OFFSET -6.386528 0.000000 0.000000
											CHANNELS 3 Xrotation Yrotation Zrotation
											JOINT RightHandIndex4
											{
												OFFSET -5.189026 0.000000 0.000000
												CHANNELS 3 Xrotation Yrotation Zrotation
												End Site
												{
													OFFSET 0.236702 5.183624 0.001972
												}
											}
										}
									}
								}
							}
						}
					}
				}
			}
		}
	}
	JOINT LeftUpLeg
	{
		OFFSET 14.073000 -7.904099 -1.463000
		CHANNELS 3 Xrotation Yrotation Zrotation
		JOINT LeftLeg
		{
			OFFSET -0.109806 -34.073280 4.093200
			CHANNELS 3 Xrotation Yrotation Zrotation
			JOINT LeftFoot
			{
				OFFSET 0.109806 -29.899420 -6.319000
				CHANNELS 3 Xrotation Yrotation Zrotation
				JOINT LeftToeBase
				{
					OFFSET 1.551100 -14.988700 20.535801
					CHANNELS 3 Xrotation Yrotation Zrotation
					JOINT LeftToe_End
					{
						OFFSET 0.221200 0.570800 13.248301
						CHANNELS 3 Xrotation Yrotation Zrotation
						End Site
						{
							OFFSET 0.000000 13.262435 0.000000
						}
					}
				}
			}
		}
	}
	JOINT RightUpLeg
	{
		OFFSET -13.839300 -7.904099 -1.463000
		CHANNELS 3 Xrotation Yrotation Zrotation
		JOINT RightLeg
		{
			OFFSET 0.109694 -34.073219 4.093300
			CHANNELS 3 Xrotation Yrotation Zrotation
			JOINT RightFoot
			{
				OFFSET -0.109694 -29.899384 -6.319200
				CHANNELS 3 Xrotation Yrotation Zrotation
				JOINT RightToeBase
				{
					OFFSET -1.551100 -14.988700 20.535801
					CHANNELS 3 Xrotation Yrotation Zrotation
					JOINT RightToe_End
					{
						OFFSET -0.221200 0.570900 13.248299
						CHANNELS 3 Xrotation Yrotation Zrotation
						End Site
						{
							OFFSET 0.000000 13.262440 0.000000
						}
					}
				}
			}
		}
	}
}
MOTION
Frames: 5
Frame Time: 0.033333
-5.488961 85.145088 -29.188837 -188.363094 35.745348 186.366452 -0.208460 4.179558 4.657961 -3.236427 3.879607 -1.907702 -2.941321 3.996147 -2.050684 -7.497807 8.895590 -3.663170 3.844241 8.537460 0.326199 0.000000 -0.000000 -0.000000 2.577524 6.644722 -9.700080 5.383964 4.147985 -70.187536 2.271638 -10.527211 1.344211 -1.252188 -11.106709 10.264900 0.817807 0.705828 -1.131444 -0.873297 2.703983 -21.393913 -1.187855 3.772123 -8.816545 -0.000001 0.000000 0.000000 9.162081 0.079583 7.664335 0.180929 24.736054 -0.679959 -3.359867 6.669751 1.833280 -0.000000 -0.000000 -0.000001 0.359332 7.044251 -0.673099 1.093424 8.645962 74.786118 4.551029 16.511485 -1.429120 -1.738461 8.932117 1.856050 16.005730 -4.829793 -17.682182 -2.228001 -30.838963 7.280944 -7.252514 -2.473581 2.907751 0.000002 -0.000000 0.000002 2.298179 -3.092874 6.877038 -2.165768 -2.436908 15.344309 -1.899254 -4.833425 11.126293 -0.000000 0.000001 0.000001 -44.058238 13.113879 8.156794 38.799105 11.581350 0.622679 18.192042 -8.335658 1.494983 -28.004078 -2.086723 6.787501 -0.000001 -0.000001 -0.000000 -2.967712 -7.331485 -13.968070 38.763632 -23.675708 -1.773152 -5.855696 -3.997983 17.507238 -31.440758 -4.138713 8.716302 0.000000 0.000000 -0.000000 
-5.315533 84.773537 -32.380054 -188.505462 32.351935 187.644312 -3.260485 3.751507 4.355944 -2.126171 3.648513 -2.531596 -1.853709 3.810537 -2.544925 -8.030322 7.803139 -3.564808 3.847676 7.490718 0.770026 -0.000000 0.000000 0.000000 2.500805 6.238133 -9.593068 5.370162 3.641657 -69.750882 4.441896 -10.127972 1.283038 -1.176648 -9.149554 9.637283 1.121156 1.444467 -2.857220 -1.185363 2.650828 -20.700277 -1.377452 4.012875 -10.145190 -0.000001 -0.000000 0.000000 10.711492 0.575929 10.039564 -0.433387 26.185989 -2.317383 -4.160853 5.956224 0.786934 -0.000000 -0.000001 -0.000000 0.328760 6.514377 -0.419999 1.531759 7.854180 74.519761 4.647089 16.221629 -1.563612 -1.647585 10.502066 1.484278 15.993269 -4.713502 -17.655281 -2.353422 -30.653298 7.263290 -7.368166 -2.235902 2.962948 0.000001 -0.000000 0.000002 2.295947 -3.070219 6.816416 -2.165743 -2.437143 15.332991 -1.899135 -4.833714 11.115042 -0.000000 -0.000000 0.000001 -43.159928 14.204225 4.166046 40.364273 10.589930 0.711777 16.005167 -9.017129 3.475853 -30.386337 -1.567574 5.597661 0.000000 -0.000002 0.000000 -4.020668 -6.067727 -17.272367 42.635817 -21.297670 -1.949443 -3.068277 -3.629729 16.320819 -31.156167 -4.208399 8.844319 -0.000000 0.000002 -0.000001 
-5.205336 84.462845 -35.360767 -187.657426 29.557176 188.236079 -4.632013 3.372129 4.114027 -1.396679 3.355617 -3.027260 -1.136202 3.546335 -2.976950 -8.216131 6.997031 -3.549331 3.875366 6.764915 0.921939 -0.000001 0.000000 -0.000000 2.451501 6.037766 -9.773439 5.437385 2.386675 -68.883728 6.641788 -10.225781 0.926432 -1.120255 -7.566463 8.708975 1.444795 2.117621 -4.475450 -1.475586 2.594813 -20.053562 -1.544844 4.247352 -11.384301 -0.000000 0.000001 0.000001 12.191801 1.131276 12.223442 -0.969985 27.592622 -3.827412 -4.902666 5.305454 -0.206309 -0.000002 0.000001 0.000005 0.299978 5.997018 -0.139360 2.022227 7.085928 74.526564 4.688585 15.944774 -1.685155 -1.533548 12.001603 1.093465 15.979593 -4.585719 -17.625759 -2.491062 -30.449420 7.244665 -7.495631 -1.975076 3.024226 0.000001 0.000001 -0.000000 2.293534 -3.045339 6.749788 -2.165716 -2.437451 15.320615 -1.898944 -4.833989 11.102687 -0.000000 0.000000 -0.000002 -40.916829 15.955059 0.966345 41.820043 8.355023 0.731780 13.404414 -8.560457 5.220974 -30.979682 -1.102842 4.216519 -0.000000 -0.000000 0.000000 -5.287117 -2.333087 -19.416841 47.681236 -19.666971 -2.032412 2.854263 -3.795678 13.303229 -32.376586 -4.541906 10.418196 -0.000001 0.000001 0.000001 
-5.187475 84.232437 -38.100292 -185.985792 26.805038 188.046309 -4.468714 3.027180 4.111347 -1.020487 2.894719 -3.262626 -0.769376 3.082630 -3.208492 -8.289384 6.361551 -3.889079 4.248465 6.093367 0.947998 0.000001 -0.000000 -0.000000 2.413833 5.994307 -10.016321 5.244591 0.575168 -68.137148 8.151578 -10.764008 0.414788 -1.015436 -6.465460 7.874241 1.762025 2.696416 -5.907957 -1.730454 2.540344 -19.484298 -1.684413 4.461548 -12.475557 0.000002 -0.000000 -0.000001 13.520353 1.694633 14.118011 -1.412207 28.873423 -5.144498 -5.551755 4.744173 -1.094568 -0.000000 0.000001 0.000002 0.273359 5.501319 0.175779 2.436708 6.342007 74.444882 4.689098 15.677943 -1.792699 -1.401081 13.389322 0.704267 15.964807 -4.447543 -17.593896 -2.639710 -30.229075 7.225373 -7.633968 -1.693358 3.091129 0.000000 -0.000000 -0.000001 2.290999 -3.018450 6.677802 -2.165670 -2.437830 15.307181 -1.898777 -4.834251 11.089272 -0.000000 -0.000002 -0.000001 -37.726611 16.687645 -1.959283 43.161731 6.610319 0.712774 10.828842 -8.186725 6.753513 -31.322964 -0.752802 3.453471 -0.000000 -0.000002 -0.000000 -4.583876 4.943261 -18.315972 50.772402 -19.870940 -2.442143 13.228907 -4.498494 10.586795 -39.630489 -7.230363 17.357000 -0.000000 0.000000 -0.000000 
-5.223058 83.979721 -40.435345 -184.294828 23.698753 187.741697 -3.394411 2.548297 3.365538 -1.038149 2.284853 -3.006090 -0.838183 2.429701 -2.974901 -8.125979 5.689986 -4.151896 4.727684 5.451574 0.882821 -0.000000 0.000000 -0.000000 2.319174 5.545422 -9.598848 4.562691 -1.108830 -68.265992 8.721790 -11.790801 0.081207 -0.848594 -5.222323 7.417624 2.041249 3.155397 -7.075184 -1.936636 2.492645 -19.022750 -1.792087 4.640454 -13.360682 0.000000 -0.000001 -0.000001 14.613227 2.202758 15.632898 -1.749256 29.940356 -6.204615 -6.075300 4.297091 -1.824149 -0.000000 0.000000 0.000002 0.250231 5.036529 0.532855 2.747038 5.618747 74.027769 4.662145 15.418020 -1.885352 -1.257902 14.624010 0.338322 15.948994 -4.300019 -17.559962 -2.798157 -29.994035 7.205768 -7.782157 -1.392994 3.163406 0.000001 0.000000 0.000000 2.288310 -2.989754 6.600921 -2.165617 -2.438253 15.292855 -1.898597 -4.834498 11.075011 -0.000001 0.000001 0.000000 -34.762046 15.730185 -5.008589 44.271695 5.552874 0.698491 8.726663 -7.463221 7.701937 -31.553135 -0.527096 2.968368 -0.000000 -0.000000 -0.000000 -3.570045 9.711444 -16.171912 51.296688 -20.254571 -2.613363 22.846161 -3.262111 5.691808 -46.581371 -12.173771 24.308225 -0.000001 0.000001 0.000001 
